<?xml version="1.0" encoding="UTF-8"?> <svg xmlns="http://www.w3.org/2000/svg" width="380" height="381" viewBox="0 0 380 381" fill="none"> <path fill-rule="evenodd" clip-rule="evenodd" d="M73.9406 0L21.8417 132.292L155.132 111.171L133.122 167.078L0 188.06L88.2815 298.123L113.148 235.098L197.079 339.535L221.984 276.556L305.92 381L357.46 249.275L224.033 270.599L246.042 214.695L379.205 193.673L291.032 83.3594L266.124 146.343L182.192 41.9034L157.329 104.918L73.9406 0ZM230.78 276.727L346.017 258.489L303.238 367.176L230.78 276.727ZM128.923 175.137L86.0747 283.651L13.728 193.419L128.923 175.137ZM122.254 235.072L194.601 325.305L237.449 216.791L122.254 235.072ZM365.815 188.333L292.948 97.7749L250.415 206.48L365.815 188.333ZM241.398 208.717L115.648 228.742L137.657 172.838L263.803 153.004L241.398 208.717ZM257.138 146.504L184.636 56.0943L142.049 164.999L257.138 146.504ZM148.571 104.803L76.1069 14.4373L33.3284 123.124L148.571 104.803Z" fill="#413EAD"></path> </svg> 